<svg width="12" height="10" viewBox="0 0 12 10" fill="none" xmlns="http://www.w3.org/2000/svg">
  <path
    d="M7.72385 5.66666L4.86192 8.52859C4.60157 8.78894 4.60158 9.21105 4.86192 9.4714C5.12227 9.73175 5.54438 9.73175 5.80473 9.4714L9.80426 5.47188C9.9238 5.35257 9.99828 5.18813 9.99997 5.0063C9.99999 5.0042 10 5.0021 10 5C10 4.9979 9.99999 4.9958 9.99997 4.9937C9.99834 4.81795 9.9287 4.65844 9.8161 4.54024C9.81236 4.53632 9.80858 4.53243 9.80473 4.52859L5.80474 0.528593C5.54439 0.268243 5.12228 0.268243 4.86193 0.528593C4.60158 0.788942 4.60158 1.21105 4.86193 1.4714L7.72386 4.33333L0.666663 4.33333C0.298473 4.33333 -3.67087e-06 4.63181 -3.73525e-06 5C-3.79963e-06 5.36819 0.298472 5.66666 0.666663 5.66666L7.72385 5.66666Z"
    fill="currentColor" />
  <path
    d="M11.3333 10C10.9651 10 10.6667 9.70152 10.6667 9.33333L10.6667 0.666666C10.6667 0.298476 10.9651 -2.45316e-07 11.3333 -1.16564e-07C11.7015 1.2189e-08 12 0.298477 12 0.666667L12 9.33333C12 9.70152 11.7015 10 11.3333 10Z"
    fill="currentColor" />
</svg>