<svg width="11" height="11" viewBox="0 0 11 11" fill="none" xmlns="http://www.w3.org/2000/svg">
  <path fill-rule="evenodd" clip-rule="evenodd"
    d="M4.86201 10.4714C4.60166 10.2111 4.60166 9.78894 4.86201 9.52859L9.05727 5.33333L4.86201 1.13807C4.60166 0.877722 4.60166 0.455611 4.86201 0.195262C5.12236 -0.0650873 5.54447 -0.0650873 5.80482 0.195262L10.4715 4.86193C10.7318 5.12228 10.7318 5.54439 10.4715 5.80474L5.80482 10.4714C5.54447 10.7318 5.12236 10.7318 4.86201 10.4714Z"
    fill="currentColor" />
  <path fill-rule="evenodd" clip-rule="evenodd"
    d="M0.195261 10.4714C-0.0650883 10.2111 -0.0650883 9.78894 0.195261 9.52859L4.39052 5.33333L0.195261 1.13807C-0.0650883 0.877722 -0.0650883 0.455611 0.195261 0.195262C0.455611 -0.0650873 0.877721 -0.0650873 1.13807 0.195262L5.80474 4.86193C6.06509 5.12228 6.06509 5.54439 5.80474 5.80474L1.13807 10.4714C0.877721 10.7318 0.455611 10.7318 0.195261 10.4714Z"
    fill="currentColor" />
</svg>