<svg width="20" height="20" viewBox="0 0 20 20" fill="none" xmlns="http://www.w3.org/2000/svg">
  <path fill-rule="evenodd" clip-rule="evenodd"
    d="M20 10C20 15.5228 15.5228 20 10 20C4.47715 20 0 15.5228 0 10C0 4.47715 4.47715 0 10 0C15.5228 0 20 4.47715 20 10ZM8.34646 17.8289C7.05406 15.7747 6.26398 13.4342 6.05354 11H2.06189C2.48561 14.398 5.04032 17.1341 8.34646 17.8289ZM2.06189 9H6.05354C6.26398 6.56576 7.05406 4.22531 8.34646 2.17109C5.04032 2.86589 2.48561 5.60205 2.06189 9ZM17.9381 11C17.5144 14.398 14.9597 17.1341 11.6535 17.8289C12.9459 15.7747 13.736 13.4342 13.9465 11H17.9381ZM17.9381 9C17.5144 5.60205 14.9597 2.86589 11.6535 2.17109C12.9459 4.22531 13.736 6.56576 13.9465 9H17.9381ZM10 16.701C8.93005 14.9792 8.26422 13.0293 8.06214 11H11.9379C11.7358 13.0293 11.0699 14.9792 10 16.701ZM8.06214 9H11.9379C11.7358 6.9707 11.0699 5.02084 10 3.29898C8.93005 5.02084 8.26422 6.9707 8.06214 9Z"
    fill="currentColor" />
</svg>