<svg width="40" height="40" viewBox="0 0 40 40" fill="none" xmlns="http://www.w3.org/2000/svg">
    <path
        d="M28 24C28.7594 24 29.375 24.6156 29.375 25.375C29.375 26.1344 28.7594 26.75 28 26.75H12C11.2406 26.75 10.625 26.1344 10.625 25.375C10.625 24.6156 11.2406 24 12 24H28ZM28 18.5C28.7594 18.5 29.375 19.1156 29.375 19.875C29.375 20.6344 28.7594 21.25 28 21.25H12C11.2406 21.25 10.625 20.6344 10.625 19.875C10.625 19.1156 11.2406 18.5 12 18.5H28ZM28 13C28.7594 13 29.375 13.6156 29.375 14.375C29.375 15.1344 28.7594 15.75 28 15.75H12C11.2406 15.75 10.625 15.1344 10.625 14.375C10.625 13.6156 11.2406 13 12 13H28Z"
        fill="currentColor" />
</svg>