<svg width="12" height="12" viewBox="0 0 12 12" fill="none" xmlns="http://www.w3.org/2000/svg">
<path d="M1.63636 1.33333C1.469 1.33333 1.33333 1.469 1.33333 1.63636V10.3636C1.33333 10.531 1.469 10.6667 1.63636 10.6667H10.3636C10.531 10.6667 10.6667 10.531 10.6667 10.3636V7.93939C10.6667 7.5712 10.9651 7.27273 11.3333 7.27273C11.7015 7.27273 12 7.5712 12 7.93939V10.3636C12 11.2674 11.2674 12 10.3636 12H1.63636C0.732625 12 0 11.2674 0 10.3636V1.63636C0 0.732625 0.732625 0 1.63636 0H4.06061C4.4288 0 4.72727 0.298477 4.72727 0.666667C4.72727 1.03486 4.4288 1.33333 4.06061 1.33333H1.63636Z" fill="currentColor"/>
<path d="M10.6667 2.27614V4.54545C10.6667 4.91364 10.9651 5.21212 11.3333 5.21212C11.7015 5.21212 12 4.91364 12 4.54545V0.666667C12 0.298477 11.7015 0 11.3333 0H7.45455C7.08636 0 6.78788 0.298477 6.78788 0.666667C6.78788 1.03486 7.08636 1.33333 7.45455 1.33333H9.72386L5.28616 5.77103C5.02581 6.03138 5.02581 6.45349 5.28616 6.71384C5.54651 6.97419 5.96862 6.97419 6.22897 6.71384L10.6667 2.27614Z" fill="currentColor"/>
</svg>
