<svg width="71" height="16" viewBox="0 0 71 16" fill="none" xmlns="http://www.w3.org/2000/svg">
  <path fill-rule="evenodd" clip-rule="evenodd"
    d="M34.6931 0C39.149 0 42.7614 3.58164 42.7614 7.99988C42.7614 12.4182 39.149 16 34.6931 16C30.2372 16 26.625 12.4182 26.625 7.99988C26.625 3.58164 30.2372 0 34.6931 0ZM6.54502 0L6.81374 0.00361799C8.1412 0.0380234 10.441 0.326655 11.3824 1.24436C11.7721 1.62419 11.9641 2.0934 11.9641 2.69674C11.9641 3.63523 11.3078 4.33488 10.2533 4.33488C10.048 4.33488 9.79624 4.28436 9.50148 4.2116L8.80521 4.03198L8.49144 3.95494C7.89822 3.8152 7.20693 3.69044 6.43041 3.69044L6.31758 3.69103L6.09831 3.69605C6.02673 3.69863 5.95672 3.70216 5.88846 3.70675L5.68914 3.72381C4.9789 3.7989 4.5028 4.01637 4.5028 4.52945C4.5028 4.66725 4.5407 4.80025 4.65062 4.96065C4.69366 5.02352 4.74913 5.08579 4.81705 5.14637L4.89339 5.20977C5.01069 5.30654 5.16005 5.39269 5.33562 5.47183L5.49239 5.53804L5.66119 5.60133C5.69028 5.61166 5.71984 5.6219 5.74984 5.63204L5.93514 5.6919L6.13042 5.75012L6.44026 5.83547L6.88067 5.94824L7.70809 6.15422L8.07763 6.2503L8.32693 6.31823L8.57762 6.38986L8.82889 6.46568C8.87077 6.4787 8.91264 6.49191 8.95449 6.50533L9.20509 6.58841L9.45422 6.67697C11.2738 7.34769 12.9091 8.50097 12.9091 11.0395C12.9091 14.4136 9.93762 16 6.24704 16C6.07297 16 5.89379 15.9955 5.71099 15.9864L5.43427 15.9693L5.15324 15.9453C5.05897 15.9362 4.96417 15.9259 4.86902 15.9144L4.58274 15.8765C2.33499 15.552 0 14.5805 0 12.8717C0 11.8886 0.650428 11.0407 1.70492 11.0407C2.01031 11.0407 2.35413 11.1499 2.75515 11.3022L3.54281 11.6084C4.35271 11.9144 5.36046 12.2301 6.65829 12.2301C8.04356 12.2301 8.69842 11.9381 8.69842 11.33C8.69842 11.0395 8.58381 10.874 8.40043 10.6952C8.19253 10.5019 7.88578 10.3398 7.51182 10.1905L7.31939 10.1168L7.11664 10.0448L6.90444 9.97384L6.57035 9.86843L5.35562 9.50479L4.97229 9.38537L4.58551 9.25813L4.32719 9.1681L4.06954 9.07332C3.85534 8.99222 3.64275 8.90563 3.43406 8.81223L3.18563 8.69679C1.62596 7.94389 0.343911 6.76679 0.343911 4.58204C0.343911 1.74423 2.9002 0 6.54502 0ZM65.6043 0.000462848L66.0323 0.0070285L66.5418 0.0224792L66.9126 0.0392514L67.2986 0.0622757C68.2752 0.128419 69.3137 0.261814 69.8185 0.527237C70.605 0.940833 71.0802 1.68485 70.9888 2.55613C70.872 3.67145 69.9552 4.15267 68.8486 4.07273L68.3331 4.02413L67.9249 3.99129L67.5424 3.96509L67.1028 3.94003L66.6133 3.91835L66.2631 3.90689L65.8961 3.89859L65.5147 3.89412L65.1899 3.89414L64.8831 3.90076L64.5275 3.91487L64.2061 3.93284L63.969 3.94914L63.5839 3.98114L63.31 4.00813L63.0246 4.04014C62.8697 4.05865 62.7486 4.17879 62.726 4.3288L62.7221 4.37982V6.20678H67.8109C68.8071 6.20678 69.6764 7.00759 69.6863 7.99958C69.6768 8.95965 68.8623 9.74059 67.9069 9.78998L67.8109 9.79246H62.7221V11.6196C62.7221 11.7926 62.8525 11.9385 63.0246 11.9591L63.3111 11.9912L63.7183 12.0301L64.0931 12.059L64.4294 12.0795L64.8073 12.0961L65.2336 12.1057L65.7071 12.1036L66.0815 12.0971L66.4404 12.0871L66.7815 12.0743L67.2552 12.0513L67.6766 12.0256L68.3331 11.9753L68.7409 11.9362C69.8952 11.8163 70.8682 12.292 70.9888 13.4433C71.0802 14.3144 70.605 15.0587 69.8185 15.4721C69.3474 15.7199 68.4113 15.8526 67.4945 15.923L67.1042 15.9495L66.7248 15.9693L66.3646 15.9833L66.0323 15.9924L65.6043 15.999L65.3785 16L64.9687 15.998L64.5875 15.992L64.2327 15.9823L63.9024 15.969L63.5944 15.9525L63.3068 15.9328L63.0374 15.9103L62.7841 15.885L62.545 15.8573L62.2084 15.8115L61.8919 15.7612L61.6888 15.7256C60.746 15.552 60.1141 15.1509 59.6948 14.6298C59.0664 13.8494 58.9126 12.8006 58.8988 11.846L58.8977 11.696V4.30319C58.8977 3.30981 59.0333 2.19113 59.6948 1.36951C60.1141 0.848395 60.746 0.447337 61.6888 0.273687L61.8919 0.238099L62.2084 0.187886L62.545 0.142099L62.7841 0.114379L63.0374 0.0891433L63.4482 0.0564031L63.7457 0.0382871L64.0646 0.0233816L64.4069 0.0118937C64.466 0.0102754 64.5262 0.00880809 64.5875 0.00749617L64.9687 0.00152341C65.0346 0.000850177 65.1016 0.000340934 65.1699 0L65.6043 0.000462848ZM55.2823 0C56.0186 0 57.2841 0.670216 57.2841 2.21845C57.2841 5.59232 54.9931 12.4155 52.3688 15.1423C51.8248 15.7074 51.1302 16.009 50.426 15.9998C49.7219 16.009 49.0273 15.7074 48.4833 15.1423C45.859 12.4155 43.5682 5.59232 43.5682 2.21845C43.5682 0.670216 44.7944 0 45.5698 0C46.912 0 47.3642 0.862814 47.5606 1.988L47.5937 2.19533C48.0404 5.22358 48.9552 8.0786 50.2211 10.9502L50.3958 11.3419H50.4562C51.7538 8.4684 52.7056 5.62012 53.1946 2.60722L53.2584 2.19533C53.4363 0.970566 53.8588 0 55.2823 0ZM19.9565 0L20.3197 0.00309752L20.6715 0.0090316L21.1771 0.0226555L21.6548 0.0411299L22.1031 0.0635356L22.6527 0.0979368L23.1441 0.135515L23.6713 0.183635L24.0957 0.22906L24.6092 0.294802L24.6799 0.305689C25.9646 0.52603 26.7292 1.43244 26.6135 2.55919C26.5016 3.64967 25.6162 4.25887 24.5567 4.19001L23.6018 4.12642L22.4479 4.0656L21.7633 4.03623V14.1468C21.7633 15.5067 20.6899 16 19.6721 16C18.707 16 17.7534 15.5361 17.6965 14.268L17.6938 14.1468V4.03615L16.704 4.08412L15.0492 4.18086C13.9425 4.29812 13.0356 3.68627 12.9199 2.55944C12.8077 1.46667 13.5789 0.562223 14.7506 0.325875L14.9084 0.298721L15.4654 0.229536L15.9005 0.184095L16.4369 0.135901L17.0654 0.0892321L17.483 0.063744L17.9286 0.0412706L18.4003 0.0227363L18.8961 0.00906565L19.239 0.00311038L19.5913 1.49523e-06L19.9565 0ZM34.6931 4C32.4652 4 30.6591 5.79079 30.6591 7.99984C30.6591 10.2091 32.4652 12 34.6931 12C36.9212 12 38.7273 10.2091 38.7273 7.99984C38.7273 5.79079 36.9212 4 34.6931 4Z"
    fill="currentColor" />
</svg>