<svg width="40" height="40" viewBox="0 0 40 40" fill="none" xmlns="http://www.w3.org/2000/svg">
<g clip-path="url(#clip0_28365_13990)">
<path fill-rule="evenodd" clip-rule="evenodd" d="M30 20C30 25.5228 25.5228 30 20 30C14.4772 30 10 25.5228 10 20C10 14.4772 14.4772 10 20 10C25.5228 10 30 14.4772 30 20ZM18.3465 27.8289C17.0541 25.7747 16.264 23.4342 16.0535 21H12.0619C12.4856 24.398 15.0403 27.1341 18.3465 27.8289ZM12.0619 19H16.0535C16.264 16.5658 17.0541 14.2253 18.3465 12.1711C15.0403 12.8659 12.4856 15.6021 12.0619 19ZM27.9381 21C27.5144 24.398 24.9597 27.1341 21.6535 27.8289C22.9459 25.7747 23.736 23.4342 23.9465 21H27.9381ZM27.9381 19C27.5144 15.602 24.9597 12.8659 21.6535 12.1711C22.9459 14.2253 23.736 16.5658 23.9465 19H27.9381ZM20 26.701C18.9301 24.9792 18.2642 23.0293 18.0621 21H21.9379C21.7358 23.0293 21.0699 24.9792 20 26.701ZM18.0621 19H21.9379C21.7358 16.9707 21.0699 15.0208 20 13.299C18.9301 15.0208 18.2642 16.9707 18.0621 19Z" fill="#1F1F1F"/>
</g>
<defs>
<clipPath id="clip0_28365_13990">
<rect width="24" height="24" fill="white" transform="translate(8 8)"/>
</clipPath>
</defs>
</svg>
